<?xml version="1.0" encoding="UTF-8" standalone="no"?>
<svg
   width="950"
   height="950"
   viewBox="0 0 950 950"
   version="1.1"
   id="svg4"
   sodipodi:docname="image.svg"
   inkscape:version="1.4.2 (f4327f4, 2025-05-13)"
   xmlns:inkscape="http://www.inkscape.org/namespaces/inkscape"
   xmlns:sodipodi="http://sodipodi.sourceforge.net/DTD/sodipodi-0.dtd"
   xmlns="http://www.w3.org/2000/svg"
   xmlns:svg="http://www.w3.org/2000/svg">
  <defs
     id="defs4" />
  <sodipodi:namedview
     id="namedview4"
     pagecolor="#ffffff"
     bordercolor="#000000"
     borderopacity="0.25"
     inkscape:showpageshadow="2"
     inkscape:pageopacity="0.0"
     inkscape:pagecheckerboard="0"
     inkscape:deskcolor="#d1d1d1"
     inkscape:zoom="1.1009434"
     inkscape:cx="738.00343"
     inkscape:cy="457.33505"
     inkscape:window-width="3440"
     inkscape:window-height="1406"
     inkscape:window-x="-11"
     inkscape:window-y="1285"
     inkscape:window-maximized="1"
     inkscape:current-layer="svg4" />
  <path
     fill="#25a6a6"
     d="m 223.00735,879.11306 c -15.657,-8.488 -33.026,-24.307 -46.741,-35.962 -79.717,-67.746 -132.411997,-164.123 -149.954997,-266.96 -17.2090001,-101.622 0.283,-206.079 49.66,-296.554 C 134.32535,173.42506 232.66535,94.893057 349.16435,61.472056 c 115.712,-32.982 239.764,-19.021 345.248,38.853004 104.742,57.346 182.582,153.741 216.582,268.198 34.38,116.182 21.53,241.234 -35.76,348.001 -31.17,56.557 -73.8,105.988 -125.17,145.132 -6.775,5.227 -20.099,15.675 -27.025,19.765 -8.033,-11.434 -15.401,-23.258 -23.367,-34.769 l -138.437,-201.933 -62.701,-91.244 c -7.479,-10.913 -23.259,-32.404 -29.475,-43.269 0.128,-11.542 0.938,-27.48 1.362,-39.113 0.875,-24.008 0.693,-67.948 6.334,-91.027 l -0.572,-0.402 c -3.823,-1.263 -9.34,-2.885 -12.773,-4.706 -1.325,35.194 -3.355,70.358 -6.091,105.47 -0.391,5.326 -1.461,28.219 -2.675,31.511 -3.254,8.821 -14.986,26.109 -20.366,34.592 -15.756,24.872 -31.711,49.618 -47.864,74.234 -30.161,46.671 -59.645,94.96 -89.699,141.978 -17.667,27.241 -35.038,54.672 -52.11,82.29 -6.77,10.784 -15.384,23.313 -21.598,34.08 z"
     id="path1" />
  <path
     fill="#fefefe"
     d="m 443.59135,153.19606 c 22.005,3.855 43.99,7.826 65.953,11.914 8.201,1.555 23.248,4.034 30.848,6.156 -2.378,57.37 -7.464,116.385 -10.672,174.018 l -4.715,80.165 c -0.731,12.155 -1.633,34.734 -3.38,46.182 -2.705,0.523 -5.817,1.217 -8.522,1.519 2.012,-18.125 2.534,-37.332 3.358,-55.635 1.095,-24.123 2.381,-48.236 3.859,-72.337 -14.722,3.365 -29.27,10.016 -37.697,23.172 -1.66,2.592 -4.765,10.423 -6.44,11.314 -3.823,-1.263 -9.34,-2.885 -12.773,-4.706 -4.998,-3.121 -15.665,-5.19 -21.606,-6.518 -1.88,19.864 -2.162,39.845 -3.449,59.73 -1.32,20.389 -3.288,40.611 -4.008,61.067 l -10.718,3.399 c 0.443,-18.439 10.939,-116.762 4.527,-124.279 -5.376,-6.303 -50.239,-14.701 -60.562,-16.871 -1.321,42.282 -6.341,85.378 -8.294,127.69 -0.294,6.384 -0.585,13.583 -1.34,19.88 l -8.781,-0.418 c -0.44,-13.907 0.733,-31.806 1.37,-45.931 1.085,-25.951 2.509,-51.888 4.272,-77.802 0.624,-9.315 1.997,-39.038 3.618,-46.211 16.652,-11.587 61.584,-25.766 74.069,-37.314 3.123,-8.91 3.151,-18.695 3.993,-28.045 3.284,-36.454 2.914,-73.791 7.09,-110.139 z"
     id="path2" />
  <path
     fill="#25a6a6"
     d="m 449.82035,241.19006 74.1,13.552 c -1.486,20.877 -2.542,42.059 -4.203,62.866 l -0.803,0.87 c -6.246,0.333 -63.555,-13.012 -71.699,-15.436 -0.488,-16.104 1.492,-45.339 2.605,-61.852 z"
     id="path3" />
  <path
     fill="#25a6a6"
     d="m 464.24235,535.08906 c 2.389,2.235 10.177,13.873 12.35,17.01 l 31.755,46.721 c 21.507,31.62 49.118,68.329 68.669,100.635 -6.335,19.936 -11.597,32.283 -18.794,51.444 -0.207,-0.669 -0.421,-1.337 -0.642,-2.002 -4.35,-13.102 -11.267,-25.904 -23.967,-32.24 -11.07,3.328 -39.439,29.588 -49.121,37.96 l -8.96,8.983 c -5.084,-22.439 -16.248,-73.68 -27.635,-91.849 -14.764,14.614 -27.301,29.02 -45.679,40.063 -5.47,-16.492 -12.205,-37.139 -16.695,-53.765 4.529,-9.583 19.625,-31.308 26.258,-41.566 z"
     id="path4" />
</svg>
